<svg xmlns="http://www.w3.org/2000/svg" width="184" height="73" fill="none"><path fill="#000" d="M34.373 20.669v10.598H.705V20.669h33.668ZM.705 71.539V16.993c0-3.688.72-6.745 2.161-9.174C4.33 5.39 6.324 3.569 8.851 2.354 11.378 1.14 14.25.533 17.463.533c2.172 0 4.156.165 5.951.496 1.818.332 3.17.63 4.056.895l-2.526 10.598a17.781 17.781 0 0 0-2.062-.497 12.916 12.916 0 0 0-2.46-.232c-2.084 0-3.536.486-4.356 1.457-.82.95-1.23 2.285-1.23 4.008v54.281H.706Z"/><path fill="#000" d="M66.413 49.88V21.669s.01-1.665 7.087-1.663c7.077.003 7.077 1.663 7.077 1.663v48.87S79 72 74 72c-4.5 0-7.022-1.46-7.022-1.46v-8.241h-.532c-1.152 2.98-3.07 5.376-5.752 7.187-2.66 1.81-5.907 2.715-9.742 2.715-3.413 0-6.417-.772-9.01-2.318-2.593-1.545-4.622-3.742-6.084-6.59-1.441-2.849-2.173-6.26-2.195-10.234v-32.39h14.164v29.873c.022 3.003.831 5.376 2.427 7.12 1.596 1.745 3.735 2.617 6.417 2.617a10.22 10.22 0 0 0 4.788-1.16c1.485-.794 2.682-1.964 3.59-3.51.932-1.546 1.386-3.455 1.364-5.73ZM130.653 35.175l-12.967.795a6.662 6.662 0 0 0-1.429-2.981c-.732-.905-1.696-1.623-2.893-2.153-1.175-.552-2.582-.828-4.223-.828-2.194 0-4.045.464-5.552 1.391-1.507.905-2.261 2.12-2.261 3.643 0 1.215.488 2.241 1.463 3.08.975.84 2.649 1.513 5.02 2.02l9.244 1.855c4.965 1.016 8.666 2.65 11.105 4.902 2.438 2.252 3.657 5.21 3.657 8.876 0 3.334-.986 6.26-2.959 8.776-1.951 2.517-4.633 4.482-8.046 5.895-3.392 1.391-7.304 2.087-11.737 2.087-6.761 0-12.147-1.402-16.16-4.206C88.927 65.5 86.589 61.659 85.9 56.8l13.932-.728c.421 2.053 1.44 3.62 3.059 4.703 1.618 1.06 3.69 1.59 6.217 1.59 2.483 0 4.478-.475 5.985-1.425 1.529-.971 2.305-2.219 2.327-3.742-.022-1.28-.565-2.33-1.629-3.146-1.064-.84-2.704-1.48-4.921-1.921l-8.844-1.756c-4.987-.993-8.7-2.715-11.138-5.166-2.416-2.451-3.624-5.575-3.624-9.373 0-3.268.886-6.083 2.66-8.445 1.795-2.363 4.31-4.184 7.547-5.465 3.258-1.28 7.071-1.92 11.438-1.92 6.45 0 11.526 1.357 15.227 4.073 3.724 2.716 5.897 6.414 6.517 11.095ZM160.265 72.533c-5.253 0-9.775-1.06-13.566-3.18-3.768-2.141-6.672-5.166-8.711-9.074-2.039-3.93-3.059-8.578-3.059-13.943 0-5.233 1.02-9.825 3.059-13.778 2.039-3.952 4.91-7.032 8.612-9.24 3.724-2.208 8.09-3.312 13.1-3.312 3.369 0 6.505.541 9.409 1.623 2.926 1.06 5.475 2.66 7.647 4.802 2.195 2.142 3.901 4.836 5.121 8.081 1.219 3.224 1.828 7 1.828 11.327v3.875h-43.123V40.97h29.791c0-2.032-.444-3.831-1.33-5.399a9.51 9.51 0 0 0-3.691-3.676c-1.552-.905-3.358-1.358-5.42-1.358-2.15 0-4.056.497-5.718 1.49a10.463 10.463 0 0 0-3.857 3.942c-.931 1.633-1.408 3.455-1.43 5.464v8.313c0 2.517.466 4.692 1.397 6.524.953 1.833 2.294 3.246 4.023 4.24 1.729.993 3.779 1.49 6.151 1.49 1.573 0 3.014-.22 4.322-.662 1.308-.442 2.427-1.104 3.358-1.988.931-.883 1.64-1.965 2.128-3.245l13.1.86c-.665 3.136-2.028 5.874-4.09 8.214-2.039 2.319-4.677 4.13-7.913 5.432-3.214 1.28-6.927 1.92-11.138 1.92Z"/><path fill="#fff" d="M81.688 34.767V22.353c0-2.178-4.122-3.353-8-3.353-3.88 0-8 1.175-8 3.353v12.414c0 .365.13.914.747 1.478v19.51c-.617.565-.748 1.114-.748 1.478v12.414c0 2.178 4.122 3.353 8 3.353 3.88 0 8-1.175 8-3.353V57.233c0-.364-.13-.913-.748-1.478v-19.51c.618-.564.749-1.114.749-1.478Zm-1.374 34.88c0 .83-2.581 2.037-6.626 2.037-4.046 0-6.627-1.206-6.627-2.037V59.205l.747.563v-.207l.083.036.16.065a8.552 8.552 0 0 0 .378.141c.071.026.143.05.217.075a13.549 13.549 0 0 0 .84.236 12.106 12.106 0 0 0 .447.102c.067.014.135.029.203.042l.261.048.21.037c.09.015.18.028.288.044.066.01.13.02.197.028.093.013.188.024.282.035l.217.026c.097.01.197.02.297.028l.054.005.157.014c.105.008.21.015.316.021l.206.014c.102.005.206.009.31.012l.22.008c.355.01.718.01 1.075 0l.216-.008c.104-.003.209-.007.312-.013l.292-.018.229-.016.236-.021c.092-.008.184-.016.274-.026l.217-.026c.093-.01.188-.022.28-.034l.216-.032c.09-.013.18-.026.27-.041l.21-.037c.087-.015.175-.031.26-.048l.204-.042a15.655 15.655 0 0 0 .42-.095l.03-.007a9.89 9.89 0 0 0 .427-.113l.229-.067.18-.057c.074-.024.146-.048.217-.073l.173-.062a10.485 10.485 0 0 0 .448-.182v.208l.748-.563v10.442ZM73.229 43.09l-2.281 4.906h3.349l-1.496 3.117-.056.255v7.878l-.185-.011-.28-.018-.237-.021a11.7 11.7 0 0 1-.217-.02l-.195-.021-.248-.03-.191-.026a14.808 14.808 0 0 1-.658-.106l-.181-.035a13.749 13.749 0 0 1-.773-.179 12.68 12.68 0 0 1-.224-.063l-.136-.04a8.389 8.389 0 0 1-.191-.062l-.148-.049c-.054-.019-.105-.039-.18-.067l-.136-.052a5.155 5.155 0 0 1-.174-.075l-.035-.015-.084-.036a5.112 5.112 0 0 1-.172-.086l-.095-.048a4.203 4.203 0 0 1-.197-.114V37.094c.122.054.248.106.38.156l.094.036a9.79 9.79 0 0 0 .692.226c.198.057.4.112.625.166.214.05.436.095.663.138l.15.028c.223.039.45.075.684.106l.118.015c.216.028.435.052.658.072l.125.012c.243.02.491.036.742.048l.165.006c.108.005.216.008.325.01v4.977Zm1.269.504.097-.232.007-5.264.034-.001c.25-.012.498-.027.742-.048l.125-.012c.223-.02.44-.044.657-.071l.119-.015a17.8 17.8 0 0 0 .684-.107l.15-.028a11.968 11.968 0 0 0 1.289-.305l.13-.038c.2-.061.39-.124.562-.187l.091-.036c.132-.05.258-.102.381-.156v20.978a3.517 3.517 0 0 1-.197.114l-.096.048a5.017 5.017 0 0 1-.17.085c-.027.013-.055.025-.084.037l-.059.025c-.049.022-.099.044-.15.065l-.18.068c-.046.017-.09.035-.138.051l-.145.049a7.404 7.404 0 0 1-.193.062c-.05.016-.104.03-.156.046-.067.02-.134.039-.204.057l-.163.042c-.07.018-.143.035-.215.052l-.173.039-.223.046-.178.035c-.078.014-.156.028-.234.04l-.183.031-.201.03-.232.031c-.078.01-.156.02-.25.03l-.193.021-.262.024-.192.017-.282.017-.179.011c-.104.005-.21.01-.316.013l-.2.006v-7.751l2.324-4.833h-3.38l1.436-3.086Zm5.816-8.827c0 .192-.172.428-.485.664-1.107.834-3.518 1.373-6.141 1.373-2.624 0-5.035-.539-6.143-1.373-.312-.236-.484-.472-.484-.664v-10.47l.103.063.046.027c.094.052.192.103.293.152l.073.035c.08.038.162.075.245.111l.093.04c.093.04.19.077.31.123l.025.01c.114.042.232.082.351.121l.092.03c.092.029.187.058.283.085l.108.031.353.094.03.007c.129.032.262.062.395.09l.107.023c.101.021.204.041.308.06l.12.023c.125.022.25.043.376.063l.04.006c.14.022.281.04.423.06l.117.013.324.037.126.013a24.56 24.56 0 0 0 .87.065l.124.006.326.011.129.004c.292.006.58.006.874 0l.127-.004c.109-.003.217-.007.326-.012l.125-.005a18.488 18.488 0 0 0 .87-.065l.126-.013.323-.037.118-.014c.142-.018.282-.037.422-.059l.04-.006c.127-.02.252-.041.378-.063l.12-.022.332-.066.082-.017c.133-.03.266-.06.392-.09l.047-.012.338-.09.108-.03c.096-.028.19-.057.285-.087l.09-.029c.12-.039.236-.08.352-.121l.049-.02a7.716 7.716 0 0 0 .623-.264l.074-.035c.1-.05.198-.1.293-.153l.046-.028.103-.06v10.47ZM73.688 24.39c-4.046 0-6.627-1.206-6.627-2.036 0-.83 2.581-2.037 6.626-2.037 4.046 0 6.627 1.207 6.627 2.037 0 .83-2.581 2.036-6.626 2.036Zm5.813 2.372v5.537c0 .362-.308.658-.687.658-.378 0-.686-.296-.686-.659v-5.536c0-.363.308-.659.686-.659.38 0 .687.296.687.659Zm0 7.195c0 .363-.308.658-.687.658-.378 0-.686-.295-.686-.658 0-.362.308-.658.686-.658.38 0 .687.296.687.658Zm-.995 35.286a.638.638 0 0 1 .027.526.663.663 0 0 1-.379.376c-1.43.565-3.017.753-3.836.814a.685.685 0 0 1-.514-.172.644.644 0 0 1-.218-.486.66.66 0 0 1 .634-.647c.705-.047 2.084-.203 3.41-.727a.7.7 0 0 1 .876.316Zm.9-.782c.389 0 .704.303.704.675 0 .373-.315.676-.704.676-.39 0-.705-.303-.705-.676 0-.372.316-.675.705-.675Z"/></svg>